/home/minht/3dpredictsim_tutorial/predsim_tutorial/Results/Case_11/GRF.mot
version=1
nRows=15
nColumns=19
inDegrees=yes
endheader 
time	r_ground_force_vx	r_ground_force_vy	r_ground_force_vz	r_ground_force_px	r_ground_force_py	r_ground_force_pz	l_ground_force_vx	l_ground_force_vy	l_ground_force_vz	l_ground_force_px	l_ground_force_py	l_ground_force_pz	r_ground_torque_x	r_ground_torque_y	r_ground_torque_z	l_ground_torque_x	l_ground_torque_y	l_ground_torque_z	
          0.53329705	          3.41002073	        870.87596877	         20.15543306	          0.00000236	          0.00000000	          0.00001949	          0.00000000	          0.00000000	          0.00000000	          0.00000000	          0.00000000	          0.00000000	          0.00000000	         -0.02821497	          0.00000000	          0.00000000	          0.00000000	          0.00000000	
          0.54945756	          8.70010666	        868.05259869	         21.12061174	          0.00000957	          0.00000000	          0.00002023	          0.00000000	          0.00000000	          0.00000000	          0.00000000	          0.00000000	          0.00000000	          0.00000000	         -0.03008891	          0.00000000	          0.00000000	          0.00000000	          0.00000000	
          0.56561808	         14.07393684	        866.14983910	         22.03665772	          0.00002163	          0.00000000	          0.00002535	          0.00000000	          0.00000000	          0.00000000	          0.00000000	          0.00000000	          0.00000000	          0.00000000	         -0.03867390	          0.00000000	          0.00000000	          0.00000000	          0.00000000	
          0.58177860	         19.42749432	        865.47687522	         22.97604445	          0.00004438	          0.00000000	          0.00003534	          0.00000000	          0.00000000	          0.00000000	          0.00000000	          0.00000000	          0.00000000	          0.00000000	         -0.05533706	          0.00000000	          0.00000000	          0.00000000	          0.00000000	
          0.59793911	         24.67124420	        866.04873770	         23.87573108	          0.00008486	          0.00000000	          0.00005065	          0.00000000	          0.00000000	          0.00000000	          0.00000000	          0.00000000	          0.00000000	          0.00000000	         -0.08159360	          0.00000000	          0.00000000	          0.00000000	          0.00000000	
          0.61409963	         30.20082055	        868.55332781	         24.77443054	          0.00014757	          0.00000000	          0.00007003	          0.00000000	          0.00000000	          0.00000000	          0.00000000	          0.00000000	          0.00000000	          0.00000000	         -0.11645652	          0.00000000	          0.00000000	          0.00000000	          0.00000000	
          0.63026014	         35.24365859	        872.37016713	         25.64831033	          0.00022849	          0.00000000	          0.00008966	          0.00000000	          0.00000000	          0.00000000	          0.00000000	          0.00000000	          0.00000000	          0.00000000	         -0.15422692	          0.00000000	          0.00000000	          0.00000000	          0.00000000	
          0.64642066	         40.02609463	        876.72161221	         26.48129740	          0.00031360	          0.00000000	          0.00010460	          0.00000000	          0.00000000	          0.00000000	          0.00000000	          0.00000000	          0.00000000	          0.00000000	         -0.18619598	          0.00000000	          0.00000000	          0.00000000	          0.00000000	
          0.66258118	         44.63157377	        881.20936176	         27.27405310	          0.00038545	          0.00000000	          0.00011143	          0.00000000	          0.00000000	          0.00000000	          0.00000000	          0.00000000	          0.00000000	          0.00000000	         -0.20492835	          0.00000000	          0.00000000	          0.00000000	          0.00000000	
          0.67874169	         49.33484932	        885.80227334	         28.01756214	          0.00043149	          0.00000000	          0.00010957	          0.00000000	          0.00000000	          0.00000000	          0.00000000	          0.00000000	          0.00000000	          0.00000000	         -0.20742167	          0.00000000	          0.00000000	          0.00000000	          0.00000000	
          0.69490221	         53.66128764	        890.28355753	         28.68562452	          0.00044693	          0.00000000	          0.00010053	          0.00000000	          0.00000000	          0.00000000	          0.00000000	          0.00000000	          0.00000000	          0.00000000	         -0.19469225	          0.00000000	          0.00000000	          0.00000000	          0.00000000	
          0.71106273	         57.60432692	        894.28395191	         29.22407385	          0.00043339	          0.00000000	          0.00008674	          0.00000000	          0.00000000	          0.00000000	          0.00000000	          0.00000000	          0.00000000	          0.00000000	         -0.17044062	          0.00000000	          0.00000000	          0.00000000	          0.00000000	
          0.72722324	         61.06379320	        897.61926329	         29.61682127	          0.00039698	          0.00000000	          0.00007080	          0.00000000	          0.00000000	          0.00000000	          0.00000000	          0.00000000	          0.00000000	          0.00000000	         -0.13971265	          0.00000000	          0.00000000	          0.00000000	          0.00000000	
          0.74338376	         64.02421875	        900.20302127	         29.89117009	          0.00034683	          0.00000000	          0.00005511	          0.00000000	          0.00000000	          0.00000000	          0.00000000	          0.00000000	          0.00000000	          0.00000000	         -0.10780048	          0.00000000	          0.00000000	          0.00000000	          0.00000000	
          0.75954428	         67.51622836	        901.71755267	         30.01677041	          0.00029360	          0.00000000	          0.00004158	          0.00000000	          0.00000000	          0.00000000	          0.00000000	          0.00000000	          0.00000000	          0.00000000	         -0.07933474	          0.00000000	          0.00000000	          0.00000000	          0.00000000	
